<svg xmlns="http://www.w3.org/2000/svg" height="1200" width="1600" version="1.1" xmlns:xlink="http://www.w3.org/1999/xlink" xmlns:svgjs="http://svgjs.com/svgjs"><rect fill="#f3ebe9" width="1600" height="1200"></rect><g><path d="M282.84 133.96H500.86C515.14 133.96 526.73 145.54 526.73 159.82V372.6C526.73 386.87 515.14 398.46 500.86 398.46H282.84C268.57 398.46 256.98 386.87 256.98 372.6V159.82C256.98 145.54 268.57 133.96 282.84 133.96Z" fill="#353535" opacity="1" stroke-width="4" stroke="none"></path><path d="M296.07 120.86H514.09C528.36 120.86 539.95 132.45 539.95 146.72V359.5C539.95 373.78 528.36 385.37 514.09 385.37H296.07C281.8 385.37 270.21 373.78 270.21 359.5V146.72C270.21 132.45 281.8 120.86 296.07 120.86Z" fill="#c9b6c2" opacity="1" stroke-width="4" stroke="none"></path><path d="M350.48 231.51C356.24 231.51 360.95 236.22 360.95 241.98V264.24C360.95 270.01 356.24 274.72 350.48 274.72 344.72 274.72 340 270.01 340 264.24V241.98C340.07 236.22 344.72 231.51 350.48 231.51Z" stroke="#ffffff" stroke-width="4" stroke-linecap="round" stroke-linejoin="round" opacity="1" fill="none"></path><path d="M386.88 231.51C392.64 231.51 397.35 236.22 397.35 241.98V264.24C397.35 270.01 392.64 274.72 386.88 274.72 381.12 274.72 376.4 270.01 376.4 264.24V241.98C376.47 236.22 381.12 231.51 386.88 231.51Z" stroke="#ffffff" stroke-width="4" stroke-linecap="round" stroke-linejoin="round" opacity="1" fill="none"></path><path d="M303.6 231.51H314.07V274.72" stroke="#ffffff" stroke-width="4" stroke-linecap="round" stroke-linejoin="round" opacity="1" fill="none"></path><path d="M303.6 274.72H324.55" stroke="#ffffff" stroke-width="4" stroke-linecap="round" stroke-linejoin="round" opacity="1" fill="none"></path><path d="M412.81 231.51H423.28V274.72" stroke="#ffffff" stroke-width="4" stroke-linecap="round" stroke-linejoin="round" opacity="1" fill="none"></path><path d="M412.81 274.72H433.76" stroke="#ffffff" stroke-width="4" stroke-linecap="round" stroke-linejoin="round" opacity="1" fill="none"></path><path d="M459.68 231.51C465.44 231.51 470.16 236.22 470.16 241.98V264.24C470.16 270.01 465.44 274.72 459.68 274.72 453.92 274.72 449.21 270.01 449.21 264.24V241.98C449.21 236.22 453.92 231.51 459.68 231.51Z" stroke="#ffffff" stroke-width="4" stroke-linecap="round" stroke-linejoin="round" opacity="1" fill="none"></path><path d="M485.61 231.51H496.08V274.72" stroke="#ffffff" stroke-width="4" stroke-linecap="round" stroke-linejoin="round" opacity="1" fill="none"></path><path d="M485.61 274.72H506.56" stroke="#ffffff" stroke-width="4" stroke-linecap="round" stroke-linejoin="round" opacity="1" fill="none"></path><path d="M314.07 158.51C319.84 158.51 324.55 163.22 324.55 168.98V191.24C324.55 197 319.84 201.72 314.07 201.72 308.31 201.72 303.6 197 303.6 191.24V168.98C303.6 163.22 308.31 158.51 314.07 158.51Z" stroke="#ffffff" stroke-width="4" stroke-linecap="round" stroke-linejoin="round" opacity="1" fill="none"></path><path d="M386.88 158.51C392.64 158.51 397.35 163.22 397.35 168.98V191.24C397.35 197 392.64 201.72 386.88 201.72 381.12 201.72 376.4 197 376.4 191.24V168.98C376.47 163.22 381.12 158.51 386.88 158.51Z" stroke="#ffffff" stroke-width="4" stroke-linecap="round" stroke-linejoin="round" opacity="1" fill="none"></path><path d="M496.08 158.51C501.85 158.51 506.56 163.22 506.56 168.98V191.24C506.56 197 501.85 201.72 496.08 201.72 490.32 201.72 485.61 197 485.61 191.24V168.98C485.61 163.22 490.32 158.51 496.08 158.51Z" stroke="#ffffff" stroke-width="4" stroke-linecap="round" stroke-linejoin="round" opacity="1" fill="none"></path><path d="M340.07 158.51H350.54V201.72" stroke="#ffffff" stroke-width="4" stroke-linecap="round" stroke-linejoin="round" opacity="1" fill="none"></path><path d="M340.07 201.72H361.02" stroke="#ffffff" stroke-width="4" stroke-linecap="round" stroke-linejoin="round" opacity="1" fill="none"></path><path d="M412.81 158.51H423.28V201.72" stroke="#ffffff" stroke-width="4" stroke-linecap="round" stroke-linejoin="round" opacity="1" fill="none"></path><path d="M412.81 201.72H433.76" stroke="#ffffff" stroke-width="4" stroke-linecap="round" stroke-linejoin="round" opacity="1" fill="none"></path><path d="M449.21 158.51H459.68V201.72" stroke="#ffffff" stroke-width="4" stroke-linecap="round" stroke-linejoin="round" opacity="1" fill="none"></path><path d="M449.21 201.72H470.16" stroke="#ffffff" stroke-width="4" stroke-linecap="round" stroke-linejoin="round" opacity="1" fill="none"></path><path d="M461.91 304.51C467.67 304.51 472.38 309.22 472.38 314.98V337.24C472.38 343.01 467.67 347.72 461.91 347.72 456.15 347.72 451.43 343.01 451.43 337.24V314.98C451.43 309.22 456.15 304.51 461.91 304.51Z" stroke="#ffffff" stroke-width="4" stroke-linecap="round" stroke-linejoin="round" opacity="1" fill="none"></path><path d="M386.75 304.51C392.51 304.51 397.22 309.22 397.22 314.98V337.24C397.22 343.01 392.51 347.72 386.75 347.72 380.99 347.72 376.27 343.01 376.27 337.24V314.98C376.27 309.22 380.99 304.51 386.75 304.51Z" stroke="#ffffff" stroke-width="4" stroke-linecap="round" stroke-linejoin="round" opacity="1" fill="none"></path><path d="M424.33 304.51C430.09 304.51 434.8 309.22 434.8 314.98V337.24C434.8 343.01 430.09 347.72 424.33 347.72 418.57 347.72 413.85 343.01 413.85 337.24V314.98C413.85 309.22 418.57 304.51 424.33 304.51Z" stroke="#ffffff" stroke-width="4" stroke-linecap="round" stroke-linejoin="round" opacity="1" fill="none"></path><path d="M485.61 304.51H496.08V347.72" stroke="#ffffff" stroke-width="4" stroke-linecap="round" stroke-linejoin="round" opacity="1" fill="none"></path><path d="M485.61 347.72H506.56" stroke="#ffffff" stroke-width="4" stroke-linecap="round" stroke-linejoin="round" opacity="1" fill="none"></path><path d="M340.07 304.51H350.54V347.72" stroke="#ffffff" stroke-width="4" stroke-linecap="round" stroke-linejoin="round" opacity="1" fill="none"></path><path d="M340.07 347.72H361.02" stroke="#ffffff" stroke-width="4" stroke-linecap="round" stroke-linejoin="round" opacity="1" fill="none"></path><path d="M303.6 304.51H314.07V347.72" stroke="#ffffff" stroke-width="4" stroke-linecap="round" stroke-linejoin="round" opacity="1" fill="none"></path><path d="M303.6 347.72H324.55" stroke="#ffffff" stroke-width="4" stroke-linecap="round" stroke-linejoin="round" opacity="1" fill="none"></path></g><g><path d="M965.03 1112.36C996.48 1100.12 1085.93 1041.9 1056.46 1005.47 1026.99 969.04 933.17 981.81 928.4 996.03 922.38 1014.09 990.35 1000.49 1002.49 964.27 1014.64 928.05 919.26 955.03 910.55 928.47 903.49 906.88 961.29 881.77 961.4 841.19" stroke="#231f20" stroke-width="4" stroke-linecap="round" stroke-linejoin="round" opacity="1" fill="none"></path></g><g><path d="M530.01 329.78H1069.99C1077.46 329.78 1084.84 331.25 1091.74 334.11 1098.64 336.96 1104.9 341.15 1110.18 346.43 1115.46 351.71 1119.65 357.97 1122.5 364.87 1125.36 371.77 1126.83 379.16 1126.83 386.62V781.38C1126.83 788.84 1125.36 796.23 1122.5 803.13 1119.65 810.02 1115.46 816.29 1110.18 821.57 1104.9 826.85 1098.63 831.04 1091.74 833.89 1084.84 836.75 1077.46 838.22 1069.99 838.22H530.01C522.54 838.22 515.16 836.75 508.26 833.89 501.36 831.04 495.1 826.85 489.82 821.57 484.54 816.29 480.35 810.02 477.5 803.13 474.64 796.23 473.17 788.84 473.17 781.38V781.38 386.62C473.17 379.16 474.64 371.77 477.5 364.87 480.35 357.97 484.54 351.71 489.82 346.43 495.1 341.15 501.36 336.96 508.26 334.11 515.16 331.25 522.54 329.78 530.01 329.78V329.78Z" fill="#7a6783" opacity="1" stroke-width="4" stroke="none"></path><path d="M765.58 408.01C765.59 398.98 769.18 390.31 775.57 383.93 781.96 377.54 790.62 373.95 799.66 373.94H1048.5C1057.54 373.95 1066.19 377.54 1072.58 383.93 1078.97 390.31 1082.57 398.98 1082.58 408.01V695.52C1047.81 671.39 1002.73 671.11 1002.28 671.11 1002.12 671.42 982.62 703.6 932.24 703.6 927.81 703.59 923.38 703.36 918.98 702.91 894.41 700.37 892.37 671.38 892.35 671.08 879.41 671.56 866.52 673.04 853.81 675.53 820.96 692.87 811.06 683.92 790.16 703.78 781.1 712.47 772.89 721.99 765.63 732.23L765.58 732.3V408.01Z" fill="#c9b6c2" opacity="1" stroke-width="4" stroke="none"></path><path d="M929.82 776.99C927.88 776.99 925.94 776.92 924.08 776.79 909.44 775.76 887.26 767.77 864.78 735.54 851.19 716.07 841.83 692.94 840.94 682.67 840.7 679.95 841.12 678.38 842.13 678.12 858.59 674.01 875.43 671.64 892.38 671.06L892.35 649.65C892.03 649.64 891.71 649.65 891.37 649.64 882.24 649.57 873.16 647.98 864.55 644.93 849.6 639.37 840.47 629.69 837.4 616.14 834.39 602.98 835.62 588.81 836.92 573.81 837.48 567.46 838.05 560.88 838.29 554.32 839.36 524.53 841.31 502.6 844.27 487.29 847.19 472.13 857.02 459.04 872.69 449.44 887.35 440.46 905.72 435.52 924.43 435.52 945.69 435.52 965.44 442.01 980.03 453.82 1006.03 474.78 1003.22 524.58 1003.2 525.08 1003.29 525.12 1014.28 531.67 1016.33 544.45 1018.03 555 1013.31 566.69 1002.3 579.16L1002.31 671.08C1002.32 671.08 1002.35 671.08 1002.42 671.08 1004.81 671.08 1044.97 671.85 1078.04 692.54 1078.48 692.82 1078.58 693.36 1078.36 694.15 1076.65 700.07 1056.17 720.43 1026.7 740.12 1006.09 753.89 966.1 776.99 929.82 776.99Z" fill="#935757" opacity="1" stroke-width="4" stroke="none"></path><path d="M1002.27 620.47C1002.12 620.39 986.77 612.25 979 596.72 978.67 596.04 1002.18 579.3 1002.26 579.22L1002.31 620.5 1002.27 620.47Z" fill="#7b9be0" opacity="1" stroke-width="4" stroke="none"></path><path d="M951.63 539.72C945.45 531.1 937.53 518 934.84 504.47 934.72 504.09 902.62 512.46 888.36 512.46 871.92 512.46 860.29 508.85 853.41 505.82 845.96 502.55 842.35 499.22 842.32 499.19 842.93 494.72 843.66 490.66 844.27 487.29 847.19 472.13 857.02 459.04 872.69 449.44 887.34 440.46 905.72 435.52 924.43 435.52 945.69 435.52 965.44 442.01 980.03 453.82 1006.03 474.78 1003.22 524.58 1003.2 525.08 999.15 523.62 994.89 522.92 990.6 523 981.52 523 967.4 525.89 951.67 539.72L951.64 539.74 951.63 539.72Z" fill="#7b9be0" opacity="1" stroke-width="4" stroke="none"></path><path d="M892.08 649.65C919.66 649.2 933.6 640.27 933.6 640.27" stroke="#0d0d0d" stroke-width="4" stroke-linecap="round" stroke-linejoin="round" opacity="1" fill="none"></path><path d="M838.22 585.23C852.9 585.23 864.81 571.56 864.81 554.71 864.81 537.85 852.9 524.19 838.22 524.19 823.53 524.19 811.63 537.85 811.63 554.71 811.63 571.56 823.53 585.23 838.22 585.23Z" stroke="#000000" stroke-width="4" stroke-linecap="round" stroke-linejoin="round" opacity="1" fill="none"></path><path d="M905.24 585.23C919.93 585.23 931.83 571.56 931.83 554.71 931.83 537.85 919.93 524.19 905.24 524.19 890.55 524.19 878.65 537.85 878.65 554.71 878.65 571.56 890.55 585.23 905.24 585.23Z" stroke="#000000" stroke-width="4" stroke-linecap="round" stroke-linejoin="round" opacity="1" fill="none"></path><path d="M865.69 555.1H876.88" stroke="#000000" stroke-width="4" stroke-linecap="round" stroke-linejoin="round" opacity="1" fill="none"></path><path d="M932.71 550.88L950.77 540.46" stroke="#000000" stroke-width="4" stroke-linecap="round" stroke-linejoin="round" opacity="1" fill="none"></path><path d="M970.69 565.8L987.37 555.99" stroke="#0d0d0d" stroke-width="4" stroke-linecap="round" stroke-linejoin="round" opacity="1" fill="none"></path><path d="M868.54 600.14C873.05 602.59 880.9 601.61 883.85 596.71" stroke="#0d0d0d" stroke-width="4" stroke-linecap="round" stroke-linejoin="round" opacity="1" fill="none"></path><path d="M901.41 564.65C900.29 564.65 899.21 564.32 898.28 563.7 897.36 563.08 896.64 562.21 896.21 561.18 895.79 560.15 895.68 559.02 895.9 557.93 896.11 556.84 896.65 555.84 897.44 555.05 898.22 554.27 899.22 553.73 900.31 553.51 901.4 553.3 902.53 553.4 903.56 553.84 904.59 554.26 905.46 554.97 906.08 555.91 906.7 556.83 907.03 557.92 907.03 559.03 907.03 559.76 906.89 560.5 906.6 561.18 906.32 561.86 905.91 562.48 905.39 563 904.87 563.52 904.24 563.93 903.56 564.22 902.87 564.5 902.15 564.65 901.41 564.65V564.65Z" fill="#231f20" opacity="1" stroke-width="4" stroke="none"></path><path d="M850.68 564.65C849.56 564.65 848.48 564.32 847.56 563.7 846.63 563.08 845.91 562.21 845.49 561.18 845.06 560.15 844.95 559.02 845.17 557.93 845.38 556.84 845.92 555.84 846.71 555.05 847.49 554.27 848.49 553.73 849.58 553.51 850.67 553.3 851.8 553.4 852.83 553.84 853.86 554.26 854.73 554.97 855.35 555.91 855.97 556.83 856.3 557.92 856.3 559.03 856.3 559.76 856.16 560.5 855.87 561.18 855.59 561.86 855.18 562.48 854.66 563 854.13 563.52 853.52 563.93 852.83 564.22 852.15 564.5 851.42 564.65 850.68 564.65Z" fill="#231f20" opacity="1" stroke-width="4" stroke="none"></path><path d="M870.6 573.65C869.62 578.55 868.64 584.44 873.54 585.42" stroke="#0d0d0d" stroke-width="4" stroke-linecap="round" stroke-linejoin="round" opacity="1" fill="none"></path><path d="M892.35 649.6C892.65 649.55 919.61 647.97 933.38 640.4L892.35 686.86V649.6Z" fill="#0d0d0d" opacity="0.3" stroke-width="4" stroke="none"></path><path d="M561.51 793.94V750.76" stroke="#000000" stroke-width="4" stroke-linecap="round" stroke-linejoin="round" opacity="1" fill="none"></path><path d="M577.8 793.94V750.76" stroke="#000000" stroke-width="4" stroke-linecap="round" stroke-linejoin="round" opacity="1" fill="none"></path><path d="M594.19 793.94V750.76" stroke="#000000" stroke-width="4" stroke-linecap="round" stroke-linejoin="round" opacity="1" fill="none"></path><path d="M528.74 793.94V750.76" stroke="#000000" stroke-width="4" stroke-linecap="round" stroke-linejoin="round" opacity="1" fill="none"></path><path d="M626.96 793.94V750.76" stroke="#000000" stroke-width="4" stroke-linecap="round" stroke-linejoin="round" opacity="1" fill="none"></path><path d="M643.35 793.94V750.76" stroke="#000000" stroke-width="4" stroke-linecap="round" stroke-linejoin="round" opacity="1" fill="none"></path><path d="M659.73 793.94V750.76" stroke="#000000" stroke-width="4" stroke-linecap="round" stroke-linejoin="round" opacity="1" fill="none"></path><path d="M676.02 793.94V750.76" stroke="#000000" stroke-width="4" stroke-linecap="round" stroke-linejoin="round" opacity="1" fill="none"></path><path d="M708.79 793.94V750.76" stroke="#000000" stroke-width="4" stroke-linecap="round" stroke-linejoin="round" opacity="1" fill="none"></path><path d="M589.48 502.93C572.97 502.91 557.15 496.35 545.49 484.68 533.82 473.01 527.25 457.18 527.24 440.69V392.81C527.22 390.34 527.69 387.91 528.61 385.62 529.53 383.35 530.9 381.28 532.62 379.52 534.35 377.77 536.4 376.37 538.67 375.42 540.93 374.46 543.36 373.96 545.82 373.94 545.88 373.94 545.95 373.94 546.01 373.94H632.85C637.85 373.95 642.64 375.93 646.18 379.47 649.71 383 651.71 387.8 651.72 392.81V440.69C651.7 457.18 645.13 473.01 633.46 484.68 621.8 496.35 605.97 502.91 589.48 502.93V502.93Z" fill="#1e1a1a" opacity="1" stroke-width="4" stroke="none"></path><path d="M589.35 468.47C586.38 461.02 581.94 454.26 576.27 448.59 570.61 442.93 563.85 438.47 556.4 435.51 563.84 432.54 570.6 428.07 576.26 422.4 581.93 416.72 586.38 409.96 589.35 402.51 592.33 409.95 596.8 416.71 602.47 422.37 608.14 428.04 614.91 432.5 622.36 435.46 614.91 438.44 608.16 442.91 602.49 448.58 596.82 454.25 592.37 461.02 589.4 468.47L589.38 468.54 589.35 468.47Z" fill="#7a6783" opacity="1" stroke-width="4" stroke="none"></path><path d="M799.66 793.97C790.62 793.96 781.96 790.35 775.57 783.97 769.18 777.58 765.59 768.92 765.58 759.89V732.31C772.82 722.02 781.03 712.45 790.12 703.74 823.3 672.3 891.7 671.07 892.38 671.06 893.5 678.34 895.45 685.46 898.17 692.29 905.5 710.08 915.51 714.68 922.61 715.41 926.01 715.76 929.43 715.95 932.85 715.95 985.04 715.95 1002.09 671.53 1002.25 671.08 1002.26 671.08 1002.28 671.08 1002.32 671.08 1004.33 671.08 1048.45 671.76 1082.57 695.5L1082.58 759.89C1082.55 768.93 1078.94 777.6 1072.53 783.99 1066.12 790.37 1057.45 793.97 1048.4 793.97H799.66Z" fill="#ffffff" opacity="1" stroke-width="4" stroke="none"></path><path d="M938.08 736.36C929.8 736.33 921.54 735.61 913.37 734.21 876.62 728.09 860.78 692.12 860.46 674.22 871 672.35 881.68 671.25 892.38 670.96 892.46 671.24 898.28 697.22 922.61 701.57 928.14 702.57 933.75 703.09 939.39 703.1H939.39C982.1 703.1 1002.06 671.29 1002.25 670.97 1013.58 671.33 1024.83 672.84 1035.84 675.47 1028.53 690.57 1017.91 703.84 1004.77 714.29 986.13 728.94 963.69 736.36 938.09 736.36L938.08 736.36Z" fill="#a7a7a7" opacity="1" stroke-width="4" stroke="none"></path><path d="M996.69 678.15L1027.11 688.94" stroke="#6c6c6c" stroke-width="4" stroke-linecap="round" stroke-linejoin="round" opacity="1" fill="none"></path><path d="M983.64 689.73L1007.19 712.3" stroke="#6c6c6c" stroke-width="4" stroke-linecap="round" stroke-linejoin="round" opacity="1" fill="none"></path><path d="M962.77 700.08L978.83 728" stroke="#6c6c6c" stroke-width="4" stroke-linecap="round" stroke-linejoin="round" opacity="1" fill="none"></path><path d="M940.76 703.37L943.31 736.1" stroke="#6c6c6c" stroke-width="4" stroke-linecap="round" stroke-linejoin="round" opacity="1" fill="none"></path><path d="M919.56 701.39L909.85 733.27" stroke="#6c6c6c" stroke-width="4" stroke-linecap="round" stroke-linejoin="round" opacity="1" fill="none"></path><path d="M905.12 693.33L880.3 716.4" stroke="#6c6c6c" stroke-width="4" stroke-linecap="round" stroke-linejoin="round" opacity="1" fill="none"></path><path d="M895.13 680.83L865.3 692.41" stroke="#6c6c6c" stroke-width="4" stroke-linecap="round" stroke-linejoin="round" opacity="1" fill="none"></path><path d="M547.38 793.97C542.01 793.96 536.87 791.83 533.07 788.03 529.28 784.23 527.15 779.09 527.14 773.72V743.5C527.15 738.13 529.28 732.99 533.07 729.19 536.87 725.4 542.01 723.27 547.38 723.26H696.82C702.19 723.27 707.33 725.4 711.13 729.19 714.92 732.99 717.06 738.13 717.07 743.5V773.72C717.03 779.08 714.88 784.2 711.09 787.99 707.3 791.78 702.18 793.93 696.82 793.97H547.38Z" fill="#000000" opacity="0.3" stroke-width="4" stroke="none"></path></g></svg>